<svg version="1.1" xmlns="http://www.w3.org/2000/svg" xmlns:xlink="http://www.w3.org/1999/xlink" x="0px" y="0px" width="44px" height="32px" viewBox="0 0 150 106">
<path fill="none" stroke="#fab44a" stroke-width="3" stroke-miterlimit="10" d="M30.307,81.6V51.958h1.982l-0.549-5.383
	l6.026-6.46h-7.791v-5.717h11.563v1.347l9.671-11.831c16.336,0,32.674,0,49.011,0l10.246,12.542v-2.06h11.567v5.717h-8.374
	l6.03,6.46l-0.55,5.37l2.134,0.013v29.641h-16.109v-5.409H46.419v5.409L30.307,81.6L30.307,81.6z M46.804,38.233
	c18.945-0.152,39.039-0.152,57.813,0l-7.468-9.771c-14.294,0-28.584,0-42.875,0L46.804,38.233z"/>
</svg>
