<svg version="1.1" xmlns="http://www.w3.org/2000/svg" xmlns:xlink="http://www.w3.org/1999/xlink" x="0px" y="0px" width="44px" height="32px" viewBox="0 0 150 106">
<path fill="none" stroke="#fab44a" stroke-width="3" stroke-miterlimit="10" d="M103.79,81.086
	c-9.884-1.356-18.815-2.038-27.789-2.038c-8.975,0-17.907,0.682-27.789,2.038l-4.316-2.749L29.974,34.748l2.928-5.085
	c15.532-3.484,29.321-5.229,43.1-5.229c13.773,0,27.566,1.745,43.098,5.229l2.931,5.085l-13.923,43.589L103.79,81.086L103.79,81.086
	z M64.556,71.42c3.869-0.239,7.658-0.361,11.444-0.361c8.238,0,16.517,0.565,25.545,1.701l11.579-36.25
	c-4.201-0.871-8.279-1.597-12.269-2.19l-2.395,3.977l0.28,2.92l-2.728,0.661l1.6,3.578l-6.021-0.377l-0.94,6.592l-1.599-7.909
	l4.891-0.712l-1.691-2.819l2.634-0.564l-1.223-2.782v-3.489C87.682,32.748,81.844,32.42,76,32.42
	c-11.98,0-23.949,1.364-37.124,4.091l11.576,36.25c2.169-0.273,4.294-0.516,6.387-0.722l1.886-4.558l-4.958-3.379l1.052-4.118
	l-3.377-2.853l4.011-10.879l-0.741,9.61l4.961,1.586l-1.477,5.068l7.594,5.812L64.556,71.42z"/>
</svg>
