<?xml version="1.0" encoding="utf-8"?>
<svg version="1.1" xmlns="http://www.w3.org/2000/svg" xmlns:xlink="http://www.w3.org/1999/xlink" x="0px" y="0px" width="44px" height="32px" viewBox="0 0 150 106">
<path fill="none" stroke="#fab44a" stroke-width="3" stroke-miterlimit="10" d="M29.306,80.6V50.958h1.982l-0.548-5.383l6.026-6.459h-7.792v-5.715h11.561v1.347l9.671-11.833
	c16.335,0,32.673,0,49.011,0l10.245,12.542v-2.058h11.568v5.715h-8.375l6.03,6.459l-0.55,5.37l2.134,0.013v29.641H104.16v-5.409
	H45.418v5.409L29.306,80.6L29.306,80.6z M37.146,48.827l1.829,8.463h18.979l-0.61-2.976L37.146,48.827L37.146,48.827z
	 M47.559,62.242l1.641,6.901c12.332,0,37.396,0,49.729,0l1.641-6.901H47.559L47.559,62.242z M112.415,48.827l-20.2,5.486
	l-0.609,2.976h18.979L112.415,48.827L112.415,48.827z M45.804,37.233c18.944-0.149,39.039-0.149,57.812,0l-7.468-9.771
	c-14.294,0-28.584,0-42.875,0L45.804,37.233z"/>
</svg>
