<?xml version="1.0" encoding="utf-8"?>
<svg version="1.1" xmlns="http://www.w3.org/2000/svg" xmlns:xlink="http://www.w3.org/1999/xlink" x="0px" y="0px" width="44px" height="32px" viewBox="0 0 150 106">
<g>
	<path fill="none" stroke="#fab44a" stroke-width="3" stroke-miterlimit="10" d="M59.881,36.714l-0.75,0.142l-9.543,2.109
		c-0.415,0.1-0.83,0.21-1.241,0.312l-0.012,0.008c-4.854,1.274-4.587,2.667-9.079,4.428l-6.483,17.079l-4.308,0.606l2.536,16.946
		l20.167,0.069c0.753,1.029,1.587,2.004,2.488,2.907c4.493,4.497,10.7,7.28,17.558,7.28c6.854,0,13.064-2.784,17.558-7.28
		c0.909-0.911,1.749-1.894,2.509-2.937l32.251-0.032V31.778l-6.32,0.07c2.308-1.376,4.362-2.626,6.32-3.82V16.922L99.01,31.086
		c-2.229,0.862-5.625,1.326-5.625,1.326C80.723,33.57,69.766,34.85,59.881,36.714L59.881,36.714z"/>
	<path fill="none" stroke="#fab44a" stroke-width="3" stroke-miterlimit="10" d="M93.726,58.019l7.274,3.78l0.066,2.407H88.785
		v0.263c0,9.511-7.703,17.23-17.21,17.23c-9.502,0-17.215-7.72-17.215-17.23c0-0.453,0.022-0.874,0.057-1.313h-3.485
		c0.881-10.454,9.645-18.683,20.324-18.683C81.197,44.471,87.838,49.137,93.726,58.019L93.726,58.019z"/>

		<ellipse fill="none" stroke="#fab44a" stroke-width="3" stroke-miterlimit="10" cx="71.468" cy="64.024" rx="12.106" ry="12.119"/>
</g>
</svg>
