<svg version="1.1" id="图层_1" xmlns="http://www.w3.org/2000/svg" xmlns:xlink="http://www.w3.org/1999/xlink" x="0px" y="0px" width="44px" height="32px" viewBox="0 0 150 106">
<path fill="none" stroke="#fab44a" stroke-width="3" stroke-miterlimit="10" d="M70.582,65.656
	c-1.173-8.277-1.089-16.553-0.09-24.83l-15.709-5.549c-1.942,12.33-2.133,24.349,0.01,35.957L70.582,65.656L70.582,65.656z
	 M66.736,29.382c17.903,0,36.034,0,53.414,0c2.512,15.574,2.495,31.152,0,46.731c-17.82,0-35.639,0-53.458,0l19.604,10.315
	c-1.199,2.382-3.254,3.652-7.167,2.491L54.337,76.112c-6.71,0-13.419,0-20.131,0c-5.878-16.209-5.408-31.738,0-46.731
	c6.873,0,13.75,0,20.623,0l24.303-12.782c3.912-1.161,5.967,0.11,7.166,2.493L66.736,29.382L66.736,29.382z M90.863,36.902H74.137
	l-8.775-3.098h34.278L90.863,36.902L90.863,36.902z M107.31,36.303l-9.066,3.205v26.784l9.066,3.205V36.303L107.31,36.303z
	 M98.439,71.568H68.594l8.821-3.115h12.203L98.439,71.568z"/>
</svg>
