<?xml version="1.0" encoding="utf-8"?>
<svg version="1.1" xmlns="http://www.w3.org/2000/svg" xmlns:xlink="http://www.w3.org/1999/xlink" x="0px" y="0px" width="44px" height="32px" viewBox="0 0 150 106">
<path fill="none" stroke="#fab44a" stroke-width="3" stroke-miterlimit="10" d="M34.355,88.598V61.458h1.813l-0.502-4.929
	l7.07-7.583l0.878-1.076L38,33.333l-0.494-1.282l0.584-1.245l5.677-12.035l0.871-1.851h2.03h13.776h30.263h13.917h2.05l0.862,1.873
	l5.539,12.042l0.564,1.225l2.551,24.469l-0.499,4.911l1.953,0.019v27.141h-14.753v-4.957H49.108v4.957L34.355,88.598L34.355,88.598z
	 M111.82,36.775l-4.059,10.506l1.358,1.664l3.127,3.351L111.82,36.775L111.82,36.775z M51.242,26.575l-2.059,5.177h53.128
	l-2.056-5.177H51.242L51.242,26.575z M84.838,55.734l-0.31-1.753h-2.139l-0.208-1.549H67.145l-0.207,1.549h-2.332l-0.288,1.753
	h2.332l-0.257,1.908h-2.389l-0.292,1.779h21.783l-0.318-1.779h-2.244l-0.256-1.908H84.838L84.838,55.734z M50.55,54.51L52,52.433
	h-4.525h-0.541h-0.293l-2.635,3.128l15.03,2.994l0.862-2.722L50.55,54.51L50.55,54.51z M90.721,59.022l17.928-3.462l-3.383-3.128
	h-1.049h-0.538h-5.804l1.452,2.075l-9.686,1.368L90.721,59.022L90.721,59.022z M49.762,46.002h51.628l5.297-13.71l-4.113-8.937
	H90.708H60.444H48.693l-4.217,8.953L49.762,46.002L49.762,46.002z M41.531,59.506l1.677,7.745h17.375l-0.555-2.722L41.531,59.506
	L41.531,59.506z M51.067,71.786l1.503,6.319c11.293,0,34.245,0,45.538,0l1.5-6.319H51.067L51.067,71.786z M110.451,59.506
	l-18.496,5.023l-0.557,2.722h17.381L110.451,59.506z"/>
</svg>
