<?xml version="1.0" encoding="utf-8"?>
<svg version="1.1" xmlns="http://www.w3.org/2000/svg" xmlns:xlink="http://www.w3.org/1999/xlink" x="0px" y="0px" width="44px" height="32px" viewBox="0 0 150 106">
<path fill="none" stroke="#fab44a" stroke-width="3" stroke-miterlimit="10" d="M61.025,73.013l7.541-13.551
	c-0.761-0.897-1.375-1.929-1.79-3.05h-15.5c0.767,5.558,3.352,10.535,7.125,14.321C59.218,71.55,60.097,72.315,61.025,73.013
	L61.025,73.013z M76.002,16.921c9.89,0,18.837,4.012,25.316,10.494c6.476,6.484,10.482,15.446,10.482,25.345
	c0,9.894-4.007,18.855-10.482,25.338c-6.479,6.491-15.427,10.501-25.316,10.501c-9.884,0-18.835-4.019-25.31-10.501
	c-6.48-6.482-10.49-15.444-10.49-25.338c0-9.899,4.01-18.861,10.49-25.345C57.167,20.933,66.118,16.921,76.002,16.921L76.002,16.921
	z M96.141,32.599c5.148,5.162,8.337,12.287,8.337,20.16c0,7.868-3.188,14.998-8.337,20.155c-5.157,5.162-12.274,8.354-20.139,8.354
	c-7.86,0-14.985-3.191-20.134-8.354c-5.156-5.155-8.345-12.287-8.345-20.155c0-7.874,3.189-14.999,8.345-20.16
	c5.149-5.154,12.274-8.347,20.134-8.347C83.866,24.252,90.988,27.445,96.141,32.599L96.141,32.599z M87.595,75.372
	c-6.333,3.227-13.879,3.608-20.496,1.039l7.547-13.559c0.5,0.077,1.015,0.12,1.541,0.12c0.877,0,1.725-0.113,2.535-0.324
	L87.595,75.372L87.595,75.372z M70.034,50.805c-0.904-0.022-1.651,0.691-1.673,1.602c-0.017,0.904,0.699,1.652,1.601,1.674
	c0.903,0.015,1.655-0.699,1.672-1.604C71.656,51.574,70.94,50.826,70.034,50.805L70.034,50.805z M72.277,57.767
	c-0.303,0.854,0.145,1.793,0.996,2.096c0.853,0.297,1.792-0.147,2.09-0.994c0.303-0.854-0.145-1.794-0.992-2.098
	C73.517,56.468,72.579,56.91,72.277,57.767L72.277,57.767z M79.902,57.59c-0.744-0.508-0.938-1.532-0.43-2.28
	c0.508-0.749,1.53-0.938,2.277-0.431c0.746,0.508,0.938,1.531,0.432,2.273C81.67,57.901,80.65,58.1,79.902,57.59L79.902,57.59z
	 M81.996,51.08c-0.769,0.48-1.777,0.245-2.259-0.517c-0.479-0.77-0.244-1.778,0.522-2.259c0.766-0.481,1.777-0.248,2.259,0.522
	C82.995,49.59,82.766,50.605,81.996,51.08L81.996,51.08z M76.466,46.496c-0.193-0.882-1.064-1.441-1.945-1.25
	c-0.883,0.192-1.446,1.067-1.257,1.95c0.192,0.881,1.066,1.44,1.947,1.25C76.094,48.253,76.656,47.387,76.466,46.496L76.466,46.496z
	 M101.099,56.41c-0.77,5.559-3.35,10.536-7.128,14.322c-0.222,0.218-0.443,0.437-0.673,0.649l-8.874-12.72
	c0.486-0.699,0.881-1.445,1.178-2.252H101.099L101.099,56.41z M91.351,32.839c0.923,0.7,1.802,1.463,2.62,2.289
	c3.778,3.777,6.358,8.757,7.128,14.319H85.602c-0.417-1.13-1.03-2.159-1.792-3.056L91.351,32.839L91.351,32.839z M64.778,30.481
	c3.425-1.745,7.302-2.733,11.41-2.733c3.207,0,6.267,0.601,9.089,1.693L77.73,42.999c-0.502-0.078-1.018-0.118-1.542-0.118
	c-0.879,0-1.726,0.113-2.536,0.324L64.778,30.481L64.778,30.481z M51.276,49.447h15.499c0.297-0.804,0.69-1.559,1.172-2.251
	l-8.867-12.718c-0.235,0.21-0.456,0.423-0.677,0.65C54.628,38.905,52.044,43.885,51.276,49.447z"/>
</svg>
