<svg version="1.1" xmlns="http://www.w3.org/2000/svg" xmlns:xlink="http://www.w3.org/1999/xlink" x="0px" y="0px" width="44px" height="32px" viewBox="0 0 150 106">
<path fill="none" stroke="#fab44a" stroke-width="3" stroke-miterlimit="10" d="M98.371,22.648
	c1.392,1.641,2.654,3.652,3.746,5.965c2.927,6.188,4.741,14.668,4.741,23.978c0,9.307-1.813,17.784-4.741,23.974
	c-1.229,2.597-2.664,4.806-4.259,6.544c-4.413,4.806-11.321,4.9-17.323,5.283c-4.368,0.277-8.759,0.304-13.117-0.089
	c-3.185-0.29-8.209-1.033-10.847-2.876c-6.651-4.659-11.43-17.495-11.43-32.607c0-13.486,3.801-25.159,9.349-30.823
	c3.478-3.561,8.35-4.238,13.039-4.67c4.667-0.433,9.205-0.509,13.641-0.284C87.475,17.372,93.977,17.471,98.371,22.648
	L98.371,22.648z M90.881,24.901c1.506,0,2.881,0.64,4.099,1.813l-0.104-0.534c-1.74-2.055-3.675-3.222-5.674-3.222
	c-3.238,0-6.312,3.068-8.656,8.016c-2.589,5.479-4.195,13.117-4.195,21.616c0,8.497,1.605,16.134,4.195,21.612
	c2.344,4.952,5.418,8.014,8.656,8.014c2.692,0,5.264-2.111,7.398-5.658l0.104-1.121c-1.581,2.559-3.559,4.014-5.824,4.014
	c-3.591,0-6.448-3.646-8.169-9.546c-1.345-4.614-2.176-10.89-2.176-17.729c0-6.839,0.831-13.116,2.176-17.729
	C84.432,28.546,87.29,24.901,90.881,24.901L90.881,24.901z M93.915,36.81c-0.753-2.577-1.304-4.161-1.484-4.161
	c-0.182,0-0.733,1.585-1.485,4.161c-1.124,3.853-1.818,9.281-1.818,15.366c0,6.086,0.695,11.514,1.818,15.367
	c0.752,2.571,1.304,4.161,1.485,4.161c0.181,0,0.731-1.591,1.484-4.161c1.12-3.854,1.818-9.281,1.818-15.367
	C95.733,46.091,95.035,40.661,93.915,36.81L93.915,36.81z M66.636,30.215c-0.758,1.781-1.404,3.662-1.939,5.614l8.666-0.066
	c0.519-2.026,1.142-4.006,1.875-5.904L66.636,30.215L66.636,30.215z M59.476,24.928c-1.184,1.339-2.233,2.842-3.151,4.471
	l6.846,0.022c0.794-1.711,1.701-3.318,2.719-4.815L59.476,24.928L59.476,24.928z M72.935,20.532c-0.118,0.114-0.231,0.23-0.343,0.35
	c-1.365,1.416-2.58,3.029-3.652,4.795l8.15,0.022c1.014-1.989,2.179-3.855,3.483-5.55L72.935,20.532L72.935,20.532z M58.745,82.299
	l7.09,0.623c-1.017-1.761-1.934-3.68-2.753-5.73l-7.307-0.409C56.654,78.812,57.648,80.665,58.745,82.299L58.745,82.299z
	 M69.706,79.688l8.296,0.736c-1.098-1.881-2.07-3.969-2.905-6.227l-8.591-0.477C67.424,75.958,68.493,77.969,69.706,79.688
	L69.706,79.688z M53.939,71.797l7.509,0.662c-0.546-1.832-1.016-3.73-1.412-5.664l-7.484-0.416
	C52.939,68.243,53.405,70.059,53.939,71.797L53.939,71.797z M64.927,69.141l8.796,0.781c-0.544-1.968-0.993-4.024-1.347-6.135
	l-8.776-0.485C63.949,65.323,64.393,67.281,64.927,69.141L64.927,69.141z M46.884,60.738h0.039l-0.005-0.05L46.884,60.738
	L46.884,60.738z M51.214,55.63l0.012,0.203c0.082,1.716,0.226,3.428,0.431,5.116l7.49,0.333c-0.216-1.761-0.37-3.537-0.45-5.318
	l-0.012-0.246L51.214,55.63L51.214,55.63z M62.645,52.018l-0.005,0.06c0.005,1.902,0.087,3.8,0.245,5.664l8.781,0.394
	c-0.169-1.956-0.256-3.941-0.256-5.932v-0.082L62.645,52.018L62.645,52.018z M51.593,44.987c-0.21,1.744-0.346,3.525-0.411,5.313
	l7.459,0.208c0.051-1.865,0.18-3.724,0.388-5.561L51.593,44.987L51.593,44.987z M63.523,41.171
	c-0.315,1.874-0.544,3.788-0.692,5.712l8.748,0.245c0.143-2.017,0.366-4.023,0.682-6.003L63.523,41.171L63.523,41.171z
	 M54.021,34.478c-0.601,1.657-1.103,3.395-1.512,5.194l7.368-0.047c0.382-1.872,0.857-3.691,1.429-5.447L54.021,34.478z"/>
</svg>
